# WaveFront *.obj file (generated by Autodesk ATF)

mtllib e5ae769a-7aa7-47bc-a9a7-5a6f0337a78f.mtl

g Body2

v 1.000000 1.000000 1.000000
v 1.000000 0.888036 0.993712
v 1.000000 0.777479 0.974928
v 1.000000 0.669721 0.943883
v 1.000000 0.566116 0.900969
v 1.000000 0.467968 0.846724
v 1.000000 0.376510 0.781831
v 1.000000 0.292893 0.707107
v 1.000000 0.218169 0.623490
v 1.000000 0.153276 0.532032
v 1.000000 0.099031 0.433884
v 1.000000 0.056117 0.330279
v 1.000000 0.025072 0.222521
v 1.000000 0.006288 0.111964
v 1.000000 -0.000000 0.000000
v 0.000000 -0.000000 0.000000
v 0.000000 0.006288 0.111964
v 0.000000 0.025072 0.222521
v 0.000000 0.056117 0.330279
v 0.000000 0.099031 0.433884
v 0.000000 0.153276 0.532032
v 0.000000 0.218169 0.623490
v 0.000000 0.292893 0.707107
v 0.000000 0.376510 0.781831
v 0.000000 0.467968 0.846724
v 0.000000 0.566116 0.900969
v 0.000000 0.669721 0.943883
v 0.000000 0.777479 0.974928
v 0.000000 0.888036 0.993712
v 0.000000 1.000000 1.000000
v -0.000000 -0.000000 1.000000
v 1.000000 -0.000000 1.000000
vt 30.480000 -95.755744 0.000000
vt 0.000000 -95.755744 0.000000
vt 30.480000 -99.175592 0.000000
vt -0.000000 -99.175592 0.000000
vt 30.480000 -102.595440 0.000000
vt -0.000000 -102.595440 0.000000
vt 30.480000 -106.015288 0.000000
vt 0.000000 -106.015288 0.000000
vt 30.480000 -109.435136 0.000000
vt 0.000000 -109.435136 0.000000
vt 30.480000 -112.854984 0.000000
vt 0.000000 -112.854984 0.000000
vt 30.480000 -116.274832 0.000000
vt 0.000000 -116.274832 0.000000
vt 30.480000 -119.694680 0.000000
vt 0.000000 -119.694680 0.000000
vt 30.480000 -123.114528 0.000000
vt -0.000000 -123.114528 0.000000
vt 30.480000 -126.534376 0.000000
vt -0.000000 -126.534376 0.000000
vt 30.480000 -129.954224 0.000000
vt -0.000000 -129.954224 0.000000
vt 30.480000 -133.374072 0.000000
vt -0.000000 -133.374072 0.000000
vt 30.480000 -136.793920 0.000000
vt -0.000000 -136.793920 0.000000
vt 30.480000 -140.213768 0.000000
vt 0.000000 -140.213768 0.000000
vt 30.480000 -143.633616 0.000000
vt 0.000000 -143.633616 0.000000
vt 15.240000 -15.240000 0.000000
vt 11.827323 -15.048348 0.000000
vt -15.240000 -15.240000 0.000000
vt 8.457562 -14.475803 0.000000
vt 5.173094 -13.529564 0.000000
vt 2.015224 -12.221531 0.000000
vt -0.976338 -10.568154 0.000000
vt -3.763969 -8.590224 0.000000
vt -6.312615 -6.312615 0.000000
vt -8.590224 -3.763969 0.000000
vt -10.568154 -0.976338 0.000000
vt -12.221531 2.015224 0.000000
vt -13.529564 5.173094 0.000000
vt -14.475803 8.457562 0.000000
vt -15.048348 11.827323 0.000000
vt -15.240000 15.240000 0.000000
vt 0.000000 0.000000 0.000000
vt 30.480000 -0.000000 0.000000
vt 0.000000 30.480000 0.000000
vt 30.480000 30.480000 0.000000
vt 0.000000 0.000000 0.000000
vt 30.480000 0.000000 0.000000
vt -0.000000 30.480000 0.000000
vt 30.480000 30.480000 0.000000
vt -15.240000 15.240000 0.000000
vt -11.827323 15.048348 0.000000
vt 15.240000 15.240000 0.000000
vt -8.457562 14.475803 0.000000
vt -5.173094 13.529564 0.000000
vt -2.015224 12.221531 0.000000
vt 0.976338 10.568154 0.000000
vt 3.763969 8.590224 0.000000
vt 6.312615 6.312615 0.000000
vt 8.590224 3.763969 0.000000
vt 10.568154 0.976338 0.000000
vt 12.221531 -2.015224 0.000000
vt 13.529564 -5.173094 0.000000
vt 14.475803 -8.457562 0.000000
vt 15.048348 -11.827323 0.000000
vt 15.240000 -15.240000 0.000000
vn 0.000000 -0.000000 -30.480000
vn 0.000000 -0.000000 -30.480000
vn 0.000000 3.412677 -30.288348
vn 0.000000 3.412677 -30.288348
vn 0.000000 6.782438 -29.715803
vn 0.000000 6.782438 -29.715803
vn 0.000000 10.066906 -28.769564
vn 0.000000 10.066906 -28.769564
vn 0.000000 13.224776 -27.461531
vn 0.000000 13.224776 -27.461531
vn 0.000000 16.216338 -25.808154
vn 0.000000 16.216338 -25.808154
vn 0.000000 19.003969 -23.830224
vn 0.000000 19.003969 -23.830224
vn 0.000000 21.552615 -21.552615
vn 0.000000 21.552615 -21.552615
vn 0.000000 23.830224 -19.003969
vn 0.000000 23.830224 -19.003969
vn 0.000000 25.808154 -16.216338
vn 0.000000 25.808154 -16.216338
vn 0.000000 27.461531 -13.224776
vn 0.000000 27.461531 -13.224776
vn 0.000000 28.769564 -10.066906
vn 0.000000 28.769564 -10.066906
vn 0.000000 29.715803 -6.782438
vn 0.000000 29.715803 -6.782438
vn 0.000000 30.288348 -3.412677
vn 0.000000 30.288348 -3.412677
vn 0.000000 30.480000 -0.000000
vn 0.000000 30.480000 -0.000000
vn -30.480000 0.000000 -0.000000
vn -30.480000 0.000000 -0.000000
vn -30.480000 0.000000 -0.000000
vn -30.480000 0.000000 -0.000000
vn -30.480000 0.000000 -0.000000
vn -30.480000 0.000000 -0.000000
vn -30.480000 0.000000 -0.000000
vn -30.480000 0.000000 -0.000000
vn -30.480000 0.000000 -0.000000
vn -30.480000 0.000000 -0.000000
vn -30.480000 0.000000 -0.000000
vn -30.480000 0.000000 -0.000000
vn -30.480000 0.000000 -0.000000
vn -30.480000 0.000000 -0.000000
vn -30.480000 0.000000 -0.000000
vn -30.480000 0.000000 -0.000000
vn -0.000000 0.000000 30.480000
vn -0.000000 0.000000 30.480000
vn -0.000000 0.000000 30.480000
vn -0.000000 0.000000 30.480000
vn -0.000000 -30.480000 0.000000
vn -0.000000 -30.480000 0.000000
vn -0.000000 -30.480000 0.000000
vn -0.000000 -30.480000 0.000000
vn 30.480000 -0.000000 0.000000
vn 30.480000 -0.000000 0.000000
vn 30.480000 -0.000000 0.000000
vn 30.480000 -0.000000 0.000000
vn 30.480000 -0.000000 0.000000
vn 30.480000 -0.000000 0.000000
vn 30.480000 -0.000000 0.000000
vn 30.480000 -0.000000 0.000000
vn 30.480000 -0.000000 0.000000
vn 30.480000 -0.000000 0.000000
vn 30.480000 -0.000000 0.000000
vn 30.480000 -0.000000 0.000000
vn 30.480000 -0.000000 0.000000
vn 30.480000 -0.000000 0.000000
vn 30.480000 -0.000000 0.000000
vn 30.480000 -0.000000 0.000000
usemtl Steel_-_Satin
f 30/1/1 1/2/2 29/3/3
f 29/3/3 1/2/2 2/4/4
f 29/3/3 2/4/4 28/5/5
f 28/5/5 2/4/4 3/6/6
f 28/5/5 3/6/6 27/7/7
f 27/7/7 3/6/6 4/8/8
f 27/7/7 4/8/8 26/9/9
f 26/9/9 4/8/8 5/10/10
f 26/9/9 5/10/10 25/11/11
f 25/11/11 5/10/10 6/12/12
f 25/11/11 6/12/12 24/13/13
f 24/13/13 6/12/12 7/14/14
f 24/13/13 7/14/14 23/15/15
f 23/15/15 7/14/14 8/16/16
f 23/15/15 8/16/16 22/17/17
f 22/17/17 8/16/16 9/18/18
f 22/17/17 9/18/18 21/19/19
f 21/19/19 9/18/18 10/20/20
f 21/19/19 10/20/20 20/21/21
f 20/21/21 10/20/20 11/22/22
f 20/21/21 11/22/22 19/23/23
f 19/23/23 11/22/22 12/24/24
f 19/23/23 12/24/24 18/25/25
f 18/25/25 12/24/24 13/26/26
f 18/25/25 13/26/26 17/27/27
f 17/27/27 13/26/26 14/28/28
f 17/27/27 14/28/28 16/29/29
f 16/29/29 14/28/28 15/30/30
f 30/31/31 29/32/32 31/33/33
f 31/33/33 29/32/32 28/34/34
f 31/33/33 28/34/34 27/35/35
f 27/35/35 26/36/36 31/33/33
f 31/33/33 26/36/36 25/37/37
f 31/33/33 25/37/37 24/38/38
f 24/38/38 23/39/39 31/33/33
f 31/33/33 23/39/39 22/40/40
f 31/33/33 22/40/40 21/41/41
f 21/41/41 20/42/42 31/33/33
f 31/33/33 20/42/42 19/43/43
f 31/33/33 19/43/43 18/44/44
f 18/44/44 17/45/45 31/33/33
f 31/33/33 17/45/45 16/46/46
f 32/47/47 1/48/48 31/49/49
f 31/49/49 1/48/48 30/50/50
f 15/51/51 32/52/52 16/53/53
f 16/53/53 32/52/52 31/54/54
f 15/55/55 14/56/56 32/57/57
f 32/57/57 14/56/56 13/58/58
f 32/57/57 13/58/58 12/59/59
f 12/59/59 11/60/60 32/57/57
f 32/57/57 11/60/60 10/61/61
f 32/57/57 10/61/61 9/62/62
f 9/62/62 8/63/63 32/57/57
f 32/57/57 8/63/63 7/64/64
f 32/57/57 7/64/64 6/65/65
f 6/65/65 5/66/66 32/57/57
f 32/57/57 5/66/66 4/67/67
f 32/57/57 4/67/67 3/68/68
f 3/68/68 2/69/69 32/57/57
f 32/57/57 2/69/69 1/70/70
# 32 vertices
# 70 texture params
# 70 normals
# 60 facets

# 1 groups
