# WaveFront *.obj file (generated by Autodesk ATF)

mtllib 0f0c8d69-d3fa-4439-bbd7-48a193dbb004.mtl

g Body1

v 1.000000 0.000000 1.000000
v 0.000000 1.000000 -0.000000
v -0.000000 0.000000 1.000000
v 1.000000 0.000000 0.000000
v 0.000000 0.000000 0.000000
vt 0.000000 30.480000 0.000000
vt -43.105229 -0.000000 0.000000
vt -0.000000 0.000000 0.000000
vt -43.105229 30.480000 0.000000
vt -0.000000 0.000000 0.000000
vt 0.000000 30.480000 0.000000
vt 30.480000 30.480000 0.000000
vt -0.000000 0.000000 0.000000
vt 30.480000 0.000000 0.000000
vt 30.480000 0.000000 0.000000
vt 0.000000 30.480000 0.000000
vt 0.000000 0.000000 0.000000
vt 15.240000 15.240000 0.000000
vt -15.240000 15.240000 0.000000
vt 15.240000 -15.240000 0.000000
vt -15.240000 -15.240000 0.000000
vn -0.000000 21.552615 21.552615
vn -0.000000 21.552615 21.552615
vn -0.000000 21.552615 21.552615
vn 21.552615 21.552615 0.000000
vn 21.552615 21.552615 0.000000
vn 21.552615 21.552615 0.000000
vn 0.000000 -0.000000 -30.480000
vn 0.000000 -0.000000 -30.480000
vn 0.000000 -0.000000 -30.480000
vn -30.480000 -0.000000 -0.000000
vn -30.480000 -0.000000 -0.000000
vn -30.480000 -0.000000 -0.000000
vn -0.000000 -30.480000 0.000000
vn -0.000000 -30.480000 0.000000
vn -0.000000 -30.480000 0.000000
vn -0.000000 -30.480000 0.000000
usemtl Steel_-_Satin
f 1/1/1 2/2/2 3/3/3
f 2/4/4 1/5/5 4/6/6
f 2/7/7 4/8/8 5/9/9
f 3/10/10 2/11/11 5/12/12
f 4/13/13 1/14/14 5/15/15
f 5/15/15 1/14/14 3/16/16
# 5 vertices
# 16 texture params
# 16 normals
# 6 facets

# 1 groups
